<?xml version="1.0" ?>
<svg xmlns="http://www.w3.org/2000/svg" xmlns:xlink="http://www.w3.org/1999/xlink" version="1.1" x="0px" y="0px" viewBox="0 0 48 60" enable-background="new 0 0 48 48" xml:space="preserve">
	<g>
		<rect x="21.4" y="37.8" width="5.1" height="9.7"/>
		<path d="M46.7,27.1L26,11.6V8.6h2.6c1.1,0,2-0.9,2-2s-0.9-2-2-2H26V2.5c0-1.1-0.9-2-2-2s-2,0.9-2,2v2.3h-2.6c-1.1,0-2,0.9-2,2   s0.9,2,2,2H22v2.9L1.3,27.1c-0.9,0.6-1,1.9-0.4,2.7c0.6,0.9,1.9,1,2.7,0.4l2.1-1.6h0.2v16.9c0,1.1,0.9,2,2,2h9.7V35.8   c0-1.1,0.9-2,2-2h9c1.1,0,2,0.9,2,2v11.7h9.7c1.1,0,2-0.9,2-2V28.6h0.2l2.1,1.6c0.4,0.3,0.8,0.4,1.2,0.4c0.6,0,1.2-0.3,1.6-0.8   C47.8,28.9,47.6,27.7,46.7,27.1z"/>
	</g>
</svg>

