<?xml version="1.0" ?>
<svg xmlns:dc="http://purl.org/dc/elements/1.1/" xmlns:cc="http://creativecommons.org/ns#" xmlns:rdf="http://www.w3.org/1999/02/22-rdf-syntax-ns#" xmlns:svg="http://www.w3.org/2000/svg" xmlns="http://www.w3.org/2000/svg" xmlns:sodipodi="http://sodipodi.sourceforge.net/DTD/sodipodi-0.dtd" xmlns:inkscape="http://www.inkscape.org/namespaces/inkscape" viewBox="0 0 8.4666667 10.583333625" version="1.1" x="0px" y="0px">
	<svg:g>
		<svg:path style="color:#000000;font-style:normal;font-variant:normal;font-weight:normal;font-stretch:normal;font-size:medium;line-height:normal;font-family:sans-serif;font-variant-ligatures:normal;font-variant-position:normal;font-variant-caps:normal;font-variant-numeric:normal;font-variant-alternates:normal;font-feature-settings:normal;text-indent:0;text-align:start;text-decoration:none;text-decoration-line:none;text-decoration-style:solid;text-decoration-color:#000000;letter-spacing:normal;word-spacing:normal;text-transform:none;writing-mode:lr-tb;direction:ltr;text-orientation:mixed;dominant-baseline:auto;baseline-shift:baseline;text-anchor:start;white-space:normal;shape-padding:0;clip-rule:nonzero;display:inline;overflow:visible;visibility:visible;opacity:1;isolation:auto;mix-blend-mode:normal;color-interpolation:sRGB;color-interpolation-filters:linearRGB;solid-color:#000000;solid-opacity:1;vector-effect:none;fill:#000000;fill-opacity:1;fill-rule:nonzero;stroke:none;stroke-width:0.52916664;stroke-linecap:round;stroke-linejoin:round;stroke-miterlimit:4;stroke-dasharray:none;stroke-dashoffset:0;stroke-opacity:1;paint-order:stroke fill markers;color-rendering:auto;image-rendering:auto;shape-rendering:auto;text-rendering:auto;enable-background:accumulate" d="M 1.1560017,0.20570636 C 0.51929511,0.20570636 5.3333338e-8,0.72551836 5.3333338e-8,1.3622254 v 4.001823 C 5.3333338e-8,6.0007564 0.51929511,6.5221174 1.1560017,6.5221174 h 0.3203945 v 1.476395 a 0.26460979,0.26460979 0 0 0 0.4511331,0.185519 l 1.6639831,-1.661914 h 3.7170862 c 0.6367066,0 1.158068,-0.521361 1.158068,-1.158069 v -4.001823 c 0,-0.63670704 -0.5213614,-1.15651904 -1.158068,-1.15651904 z M 4.2762249,1.4722964 c 0.3115496,0.01224 0.613963,0.143368 0.8371576,0.377754 0.3379787,0.354931 0.4532735,0.894787 0.2242767,1.349789 -0.1953869,0.388214 -0.4954244,0.564225 -0.6872976,0.661975 -0.095933,0.04888 -0.1611868,0.08532 -0.1777656,0.09974 -0.016571,0.01442 -0.00414,-0.01988 -0.00414,0.01189 v 0.374654 a 0.2646485,0.2646485 0 1 1 -0.5291667,0 v -0.374654 c 0,-0.161676 0.084984,-0.322851 0.1855179,-0.410311 C 4.225341,3.4756734 4.3224827,3.4356714 4.4100625,3.3910514 4.5852246,3.3018114 4.7323144,3.2259104 4.865331,2.9616194 4.984203,2.7254344 4.924018,2.4208534 4.728388,2.2154124 4.5348922,2.0121944 4.2403077,1.9463254 3.9785687,2.0474544 3.716827,2.1485864 3.5438503,2.3958364 3.5372516,2.6763564 A 0.26492649,0.26492649 0 1 1 3.007569,2.6629214 c 0.011599,-0.493057 0.3212968,-0.93174 0.7813464,-1.109493 0.1150117,-0.04444 0.2343282,-0.07066 0.3534674,-0.07906 0.044678,-0.0032 0.089334,-0.0038 0.1338421,-0.0021 z m -0.072348,3.330029 a 0.28755215,0.28755215 0 0 1 0.2878375,0.287838 0.28755215,0.28755215 0 0 1 -0.2878375,0.287321 0.28755215,0.28755215 0 0 1 -0.2873217,-0.287321 0.28755215,0.28755215 0 0 1 0.2873217,-0.287838 z"/>
	</svg:g>
</svg>

