<?xml version="1.0" ?>
<svg xmlns:dc="http://purl.org/dc/elements/1.1/" xmlns:cc="http://creativecommons.org/ns#" xmlns:rdf="http://www.w3.org/1999/02/22-rdf-syntax-ns#" xmlns:svg="http://www.w3.org/2000/svg" xmlns="http://www.w3.org/2000/svg" xmlns:sodipodi="http://sodipodi.sourceforge.net/DTD/sodipodi-0.dtd" xmlns:inkscape="http://www.inkscape.org/namespaces/inkscape" version="1.1" x="0px" y="0px" viewBox="0 0 100 125">
	<g transform="translate(0,-952.36218)">
		<path d="m 17,959.36215 0,86.00005 50,0 0,-14 c 0.01,-0.9745 0.9163,-1.989 2,-2 l 14,0 0,-70.00005 z m 8,5 18,0 c 1.0472,10e-5 1.9999,0.9528 2,2 l 0,13.99996 c -1e-4,1.0472 -0.9528,1.9999 -2,2 l -18,0 c -1.0472,-10e-5 -1.9999,-0.9528 -2,-2 l 0,-13.99996 c 0,-0.923 0.9152,-2.0005 2,-2 z m 2,4 0,9.99996 14,0 0,-9.99996 z m 24,2.99996 24,0 c 1.1046,0 2,0.8954 2,2 0,1.1046 -0.8954,2 -2,2 l -24,0 c -1.1046,0 -2,-0.8954 -2,-2 0,-1.1046 0.8954,-2 2,-2 z m -4.1875,14.9688 c 0.7636,-0.084 1.5596,0.3158 1.9472,0.9792 0.3875,0.6634 0.3452,1.5534 -0.1035,2.177 l -9,12.99999 c -0.5884,0.868 -1.9144,1.1213 -2.7812,0.5312 l -6,-3.99999 c -0.8702,-0.5913 -1.1266,-1.9189 -0.5393,-2.7917 0.5874,-0.8729 1.9138,-1.1353 2.7893,-0.552 l 4.3438,2.9063 7.875,-11.375 c 0.3285,-0.4886 0.8826,-0.8187 1.4687,-0.875 z M 25,988.36211 l 12,0 c 1.0566,-0.015 2.0312,0.9433 2.0312,2 0,1.0567 -0.9746,2.015 -2.0312,2 l -10,0 0,13.99999 14,0 c -0.015,-1.0566 0.9433,-2.0312 2,-2.0312 1.0567,0 2.015,0.9746 2,2.0312 l 0,2.0001 c -1e-4,1.0472 -0.9528,1.9999 -2,2 l -18,0 c -1.0472,-10e-5 -1.9999,-0.9528 -2,-2 l 0,-18.00009 c 0,-0.9204 0.9178,-1.966 2,-2 z m 26,9 24,0 c 1.1046,0 2,0.8954 2,2 0,1.10459 -0.8954,1.99999 -2,1.99999 l -24,0 c -1.1046,0 -2,-0.8954 -2,-1.99999 0,-1.1046 0.8954,-2 2,-2 z m -26,19.00009 18,0 c 1.0472,10e-5 1.9999,0.9528 2,2 l 0,14 c -1e-4,1.0472 -0.9528,1.9999 -2,2 l -18,0 c -1.0472,-10e-5 -1.9999,-0.9528 -2,-2 l 0,-14 c 0,-0.923 0.9152,-2.0005 2,-2 z m 2,4 0,10 14,0 0,-10 z m 24,3 24,0 c 1.1046,0 2,0.8954 2,2 0,1.1046 -0.8954,2 -2,2 l -24,0 c -1.1046,0 -2,-0.8954 -2,-2 0,-1.1046 0.8954,-2 2,-2 z m 20,10 0,10 10,-10 z" style="color:#000000;enable-background:accumulate;" fill="#000000" stroke="none" marker="none" visibility="visible" display="inline" overflow="visible"/>
	</g>
</svg>

