<?xml version="1.0" ?>
<svg xmlns="http://www.w3.org/2000/svg" viewBox="0 0 48 60" x="0px" y="0px">
	<title>Survey</title>
	<g>
		<path d="M14,34H8a1,1,0,0,0-1,1v6a1,1,0,0,0,1,1h6a1,1,0,0,0,1-1V35A1,1,0,0,0,14,34Zm-1,6H9V36h4Z"/>
		<path d="M14,23H8a1,1,0,0,0-1,1v6a1,1,0,0,0,1,1h6a1,1,0,0,0,1-1V24A1,1,0,0,0,14,23Zm-1,6H9V25h4Z"/>
		<path d="M19,19H32a1,1,0,0,0,0-2H19A1,1,0,0,0,19,19Z"/>
		<path d="M19,15H32a1,1,0,0,0,0-2H19A1,1,0,0,0,19,15Z"/>
		<path d="M27,28H19a1,1,0,0,0,0,2h8A1,1,0,0,0,27,28Z"/>
		<path d="M19,26h8a1,1,0,0,0,0-2H19A1,1,0,0,0,19,26Z"/>
		<path d="M24,39H19a1,1,0,0,0,0,2h5A1,1,0,0,0,24,39Z"/>
		<path d="M24,35H19a1,1,0,0,0,0,2h5A1,1,0,0,0,24,35Z"/>
		<path d="M13.29,13.29,10,16.59l-1.29-1.3a1,1,0,0,0-1.42,1.42c3.29,3.28,2,3.4,7.42-2A1,1,0,0,0,13.29,13.29Z"/>
		<path d="M44.25,13.14a3.51,3.51,0,0,0-4.78,1.28L38,17c0-9.71.08-9.24-.24-9.62C31.17-.34,31.73.26,31.45.12,30.94-.15,31,0,3,0A1,1,0,0,0,2,1V47a1,1,0,0,0,1,1H37a1,1,0,0,0,1-1V31c2.86-4.95,4.75-8.22,7.53-13A3.5,3.5,0,0,0,44.25,13.14ZM32,3.7,34.83,7H32ZM36,46H4V2H30V8a1,1,0,0,0,1,1h5V20.43L28.22,33.91c-.17.29-.1,0-.47,6a1,1,0,0,0,1,1.06c.43,0,.24,0,5.22-3.24.26-.18.12,0,2-3.32ZM30,35.24a3.4,3.4,0,0,1,2.18,1.26l-2.35,1.55Zm3.4-.38a5.43,5.43,0,0,0-2.6-1.5l8.11-14,2.6,1.5ZM43.8,16.92l-1.25,2.17L40,17.59l1.25-2.17A1.5,1.5,0,0,1,43.8,16.92Z"/>
	</g>
</svg>

